<?xml version="1.0" encoding="UTF-8" standalone="no"?>
<svg
   xmlns:dc="http://purl.org/dc/elements/1.1/"
   xmlns:cc="http://creativecommons.org/ns#"
   xmlns:rdf="http://www.w3.org/1999/02/22-rdf-syntax-ns#"
   xmlns:svg="http://www.w3.org/2000/svg"
   xmlns="http://www.w3.org/2000/svg"
   xmlns:sodipodi="http://sodipodi.sourceforge.net/DTD/sodipodi-0.dtd"
   xmlns:inkscape="http://www.inkscape.org/namespaces/inkscape"
   id="SVGRoot"
   version="1.1"
   viewBox="0 0 512.0 512.0"
   height="512.0px"
   width="512.0px"
   sodipodi:docname="composita-logo.svg"
   inkscape:version="1.0rc1 (09960d6, 2020-04-09)">
  <defs
     id="defs10">
    <inkscape:path-effect
       effect="fillet_chamfer"
       id="path-effect146"
       is_visible="true"
       lpeversion="1"
       satellites_param="F,0,0,1,0,1,0,1 @ F,0,0,1,0,1,0,1 @ F,0,0,1,0,1,0,1 @ F,0,0,1,0,1,0,1 @ F,0,0,1,0,1,0,1 @ F,0,0,1,0,1,0,1"
       unit="px"
       method="auto"
       mode="F"
       radius="1"
       chamfer_steps="1"
       flexible="false"
       use_knot_distance="true"
       apply_no_radius="true"
       apply_with_radius="true"
       only_selected="false"
       hide_knots="false" />
    <inkscape:path-effect
       hide_knots="false"
       only_selected="false"
       apply_with_radius="true"
       apply_no_radius="true"
       use_knot_distance="true"
       flexible="false"
       chamfer_steps="1"
       radius="1"
       mode="F"
       method="auto"
       unit="px"
       satellites_param="F,0,0,1,0,1,0,1 @ F,0,0,1,0,1,0,1 @ F,0,0,1,0,1,0,1 @ F,0,0,1,0,1,0,1 @ F,0,0,1,0,1,0,1 @ F,0,0,1,0,1,0,1"
       lpeversion="1"
       is_visible="true"
       id="path-effect142"
       effect="fillet_chamfer" />
    <inkscape:path-effect
       effect="fillet_chamfer"
       id="path-effect137"
       is_visible="true"
       lpeversion="1"
       satellites_param="F,0,0,1,0,1,0,1 @ F,0,0,1,0,1,0,1 @ F,0,0,1,0,1,0,1 @ F,0,0,1,0,1,0,1 @ F,0,0,1,0,1,0,1 @ F,0,0,1,0,1,0,1"
       unit="px"
       method="auto"
       mode="F"
       radius="1"
       chamfer_steps="1"
       flexible="false"
       use_knot_distance="true"
       apply_no_radius="true"
       apply_with_radius="true"
       only_selected="false"
       hide_knots="false" />
    <inkscape:path-effect
       hide_knots="false"
       only_selected="false"
       apply_with_radius="true"
       apply_no_radius="true"
       use_knot_distance="true"
       flexible="false"
       chamfer_steps="1"
       radius="1"
       mode="F"
       method="auto"
       unit="px"
       satellites_param="F,0,0,1,0,1,0,1 @ F,0,0,1,0,1,0,1 @ F,0,0,1,0,1,0,1 @ F,0,0,1,0,1,0,1 @ F,0,0,1,0,1,0,1 @ F,0,0,1,0,1,0,1"
       lpeversion="1"
       is_visible="true"
       id="path-effect133"
       effect="fillet_chamfer" />
    <inkscape:path-effect
       hide_knots="false"
       only_selected="false"
       apply_with_radius="true"
       apply_no_radius="true"
       use_knot_distance="true"
       flexible="false"
       chamfer_steps="1"
       radius="1"
       mode="F"
       method="auto"
       unit="px"
       satellites_param="F,0,0,1,0,1,0,1 @ F,0,0,1,0,1,0,1 @ F,0,0,1,0,1,0,1 @ F,0,0,1,0,1,0,1 @ F,0,0,1,0,1,0,1"
       lpeversion="1"
       is_visible="true"
       id="path-effect119"
       effect="fillet_chamfer" />
    <inkscape:path-effect
       effect="fillet_chamfer"
       id="path-effect115"
       is_visible="true"
       lpeversion="1"
       satellites_param="F,0,0,1,0,1,0,1 @ F,0,0,1,0,1,0,1 @ F,0,0,1,0,1,0,1 @ F,0,0,1,0,1,0,1 @ F,0,0,1,0,1,0,1"
       unit="px"
       method="auto"
       mode="F"
       radius="1"
       chamfer_steps="1"
       flexible="false"
       use_knot_distance="true"
       apply_no_radius="true"
       apply_with_radius="true"
       only_selected="false"
       hide_knots="false" />
    <inkscape:path-effect
       hide_knots="false"
       only_selected="false"
       apply_with_radius="true"
       apply_no_radius="true"
       use_knot_distance="true"
       flexible="false"
       chamfer_steps="1"
       radius="1"
       mode="F"
       method="auto"
       unit="px"
       satellites_param="F,0,0,1,0,1,0,1 @ F,0,0,1,0,1,0,1 @ F,0,0,1,0,1,0,1 @ F,0,0,1,0,1,0,1 @ F,0,0,1,0,1,0,1"
       lpeversion="1"
       is_visible="true"
       id="path-effect111"
       effect="fillet_chamfer" />
    <inkscape:path-effect
       hide_knots="false"
       only_selected="false"
       apply_with_radius="true"
       apply_no_radius="true"
       use_knot_distance="true"
       flexible="false"
       chamfer_steps="1"
       radius="6"
       mode="F"
       method="auto"
       unit="px"
       satellites_param="F,0,0,1,0,6,0,1 @ F,0,0,1,0,6,0,1 @ F,0,0,1,0,6,0,1 @ F,0,0,1,0,6,0,1 @ F,0,0,1,0,6,0,1"
       lpeversion="1"
       is_visible="true"
       id="path-effect82"
       effect="fillet_chamfer" />
    <inkscape:path-effect
       effect="fillet_chamfer"
       id="path-effect77"
       is_visible="true"
       lpeversion="1"
       satellites_param="F,0,0,1,0,6,0,1 @ F,0,0,1,0,6,0,1 @ F,0,0,1,0,6,0,1 @ F,0,0,1,0,6,0,1 @ F,0,0,1,0,6,0,1"
       unit="px"
       method="auto"
       mode="F"
       radius="6"
       chamfer_steps="1"
       flexible="false"
       use_knot_distance="true"
       apply_no_radius="true"
       apply_with_radius="true"
       only_selected="false"
       hide_knots="false" />
    <inkscape:path-effect
       hide_knots="false"
       only_selected="false"
       apply_with_radius="true"
       apply_no_radius="true"
       use_knot_distance="true"
       flexible="false"
       chamfer_steps="1"
       radius="6"
       mode="F"
       method="auto"
       unit="px"
       satellites_param="F,0,0,1,0,6,0,1 @ F,0,0,1,0,6,0,1 @ F,0,0,1,0,6,0,1 @ F,0,0,1,0,6,0,1 @ F,0,0,1,0,6,0,1"
       lpeversion="1"
       is_visible="true"
       id="path-effect73"
       effect="fillet_chamfer" />
    <inkscape:path-effect
       effect="fillet_chamfer"
       id="path-effect50"
       is_visible="true"
       lpeversion="1"
       satellites_param="F,0,0,1,0,8,0,1 @ F,0,0,1,0,8,0,1 @ F,0,0,1,0,8,0,1 @ F,0,0,1,0,8,0,1"
       unit="px"
       method="auto"
       mode="F"
       radius="8"
       chamfer_steps="1"
       flexible="false"
       use_knot_distance="true"
       apply_no_radius="true"
       apply_with_radius="true"
       only_selected="false"
       hide_knots="false" />
    <inkscape:path-effect
       effect="fillet_chamfer"
       id="path-effect46"
       is_visible="true"
       lpeversion="1"
       satellites_param="F,0,0,1,0,2,0,1 @ F,0,0,1,0,2,0,1 @ F,0,0,1,0,2,0,1 @ F,0,0,1,0,2,0,1"
       unit="px"
       method="auto"
       mode="F"
       radius="2"
       chamfer_steps="1"
       flexible="false"
       use_knot_distance="true"
       apply_no_radius="true"
       apply_with_radius="true"
       only_selected="false"
       hide_knots="false" />
    <inkscape:path-effect
       hide_knots="false"
       only_selected="false"
       apply_with_radius="true"
       apply_no_radius="true"
       use_knot_distance="true"
       flexible="false"
       chamfer_steps="1"
       radius="8"
       mode="F"
       method="auto"
       unit="px"
       satellites_param="F,0,0,1,0,8,0,1 @ F,0,0,1,0,8,0,1 @ F,0,0,1,0,8,0,1 @ F,0,0,1,0,8,0,1"
       lpeversion="1"
       is_visible="true"
       id="path-effect41"
       effect="fillet_chamfer" />
  </defs>
  <sodipodi:namedview
     id="base"
     pagecolor="#ffffff"
     bordercolor="#666666"
     borderopacity="1.0"
     inkscape:pageopacity="0.0"
     inkscape:pageshadow="2"
     inkscape:zoom="1.6422698"
     inkscape:cx="99.687613"
     inkscape:cy="291.21868"
     inkscape:document-units="px"
     inkscape:current-layer="layer4"
     inkscape:document-rotation="0"
     showgrid="true"
     inkscape:window-width="2560"
     inkscape:window-height="1395"
     inkscape:window-x="1679"
     inkscape:window-y="23"
     inkscape:window-maximized="0"
     inkscape:snap-grids="false"
     inkscape:snap-to-guides="false">
    <inkscape:grid
       id="grid19"
       type="xygrid" />
  </sodipodi:namedview>
  <metadata
     id="metadata13">
    <rdf:RDF>
      <cc:Work
         rdf:about="">
        <dc:format>image/svg+xml</dc:format>
        <dc:type
           rdf:resource="http://purl.org/dc/dcmitype/StillImage" />
        <dc:title></dc:title>
      </cc:Work>
    </rdf:RDF>
  </metadata>
  <g
     style="opacity:0"
     inkscape:label="Background"
     id="layer4"
     inkscape:groupmode="layer">
    <rect
       inkscape:label="Background"
       y="0"
       x="0"
       height="512"
       width="512"
       id="rect30"
       style="opacity:1;fill:#000000;fill-rule:evenodd;stroke-width:0.994224" />
  </g>
  <g
     style="display:inline"
     inkscape:label="Composita-Logo"
     inkscape:groupmode="layer"
     id="layer1">
    <g
       aria-label="O"
       id="text77"
       style="font-style:normal;font-variant:normal;font-weight:normal;font-stretch:normal;font-size:377.536px;line-height:1.25;font-family:'Gill Sans';-inkscape-font-specification:'Gill Sans, Normal';font-variant-ligatures:normal;font-variant-caps:normal;font-variant-numeric:normal;font-variant-east-asian:normal;fill:#ff2a2a;fill-opacity:1;stroke:none;stroke-width:9.43839"
       inkscape:label="O">
      <path
         id="path51"
         style="font-style:normal;font-variant:normal;font-weight:normal;font-stretch:normal;font-size:377.536px;font-family:'Gill Sans';-inkscape-font-specification:'Gill Sans, Normal';font-variant-ligatures:normal;font-variant-caps:normal;font-variant-numeric:normal;font-variant-east-asian:normal;fill:#ff2a2a;stroke-width:8.35717"
         d="m 299.36388,180 c -35.92746,-0.63016 -76.20997,13.06103 -94.10749,46.35736 -14.23765,27.25055 -6.70414,63.62349 18.016,82.26578 32.02337,26.43093 78.11011,29.83752 116.75981,18.19119 30.04676,-9.59682 58.90801,-35.29429 59.03339,-68.88819 1.82897,-28.89599 -19.43502,-53.48444 -44.12207,-65.569 C 337.86319,183.5325 318.47624,179.96101 299.36388,180 Z m -1.47475,-50 c 45.74561,-0.9953 92.37381,19.51686 118.60936,57.77519 32.7311,47.014 26.38717,118.15382 -17.14432,156.45279 -39.5024,37.36629 -99.80401,45.7092 -150.75899,30.97278 -47.36313,-14.16582 -86.1077,-57.81396 -88.25494,-108.15864 -3.7882,-40.67803 13.42764,-82.67619 46.24977,-107.43444 C 232.13158,138.84824 265.34068,129.77412 297.88913,130 Z m 137.78665,106 c 25.44141,0 50.88281,0 76.32422,0 0,13.33333 0,26.66667 0,40 -25.44141,0 -50.88281,0 -76.32422,0 0,-13.33333 0,-26.66667 0,-40 z"
         inkscape:connector-curvature="0" />
      <path
         inkscape:original-d="m 430.73023,215.27693 5.52128,20.53009 33.69956,0.25719 -37.66635,5.17796 z"
         inkscape:path-effect="#path-effect41"
         sodipodi:nodetypes="ccccc"
         inkscape:connector-curvature="0"
         d="m 432.80789,223.00243 1.36596,5.07909 a 10.518629,10.518629 37.692263 0 0 10.07743,7.78655 l 17.70002,0.13509 a 0.57798073,0.57798073 86.304962 0 1 0.0743,1.15056 l -21.81543,2.99894 a 7.4079206,7.4079206 39.373279 0 1 -8.40355,-6.89619 l -0.59831,-9.99384 a 0.81448926,0.81448926 170.76058 0 1 1.59957,-0.2602 z"
         style="fill:#ff2a2a;fill-rule:evenodd;stroke-width:31.5948"
         id="rect33" />
      <path
         id="path48"
         style="fill:#ff2a2a;fill-rule:evenodd;stroke-width:31.5948"
         d="m 432.89797,288.9854 1.32477,-5.05313 a 10.449897,10.449897 142.12659 0 1 10.02854,-7.79953 l 17.70002,-0.13509 a 0.57798073,0.57798073 93.695038 0 0 0.0743,-1.15056 l -21.81543,-2.99894 a 7.3683822,7.3683822 140.47389 0 0 -8.36094,6.89863 l -0.54456,9.98896 a 0.81049455,0.81049455 8.9054465 0 0 1.59329,0.24966 z"
         inkscape:connector-curvature="0"
         sodipodi:nodetypes="ccccc"
         inkscape:path-effect="#path-effect50"
         inkscape:original-d="m 430.8692,296.72388 5.38231,-20.53009 33.69956,-0.25719 -37.66635,-5.17796 z" />
    </g>
    <g
       aria-label="C"
       id="text24"
       style="font-style:normal;font-variant:normal;font-weight:normal;font-stretch:normal;font-size:656.422px;line-height:1.25;font-family:'Gill Sans';-inkscape-font-specification:'Gill Sans, Normal';font-variant-ligatures:normal;font-variant-caps:normal;font-variant-numeric:normal;font-variant-east-asian:normal;display:inline;fill:#333333;fill-opacity:1;stroke:none;stroke-width:16.4106"
       inkscape:label="C">
      <path
         inkscape:connector-curvature="0"
         d="m 109.86328,107.97266 c -0.59847,0.67457 -1.20224,1.34648 -1.79101,2.02539 0.58878,-0.67887 1.19254,-1.35086 1.79101,-2.02539 z m -5.99414,7.02343 c -0.51462,0.62777 -1.03443,1.25341 -1.54102,1.88477 0.50671,-0.63145 1.02628,-1.25691 1.54102,-1.88477 z m -6.035156,7.6875 c -0.305494,0.40691 -0.617653,0.8104 -0.919922,1.21875 0.302286,-0.40832 0.614413,-0.81186 0.919922,-1.21875 z m -5.203125,7.22852 c -0.270009,0.39132 -0.547306,0.77928 -0.814453,1.17187 0.267193,-0.39261 0.544398,-0.78053 0.814453,-1.17187 z m -2.228515,3.29297 c -0.344053,0.51853 -0.694087,1.03395 -1.033203,1.55469 0.339052,-0.52057 0.689218,-1.03633 1.033203,-1.55469 z m -2.681641,4.13672 c -0.218468,0.3461 -0.441885,0.69004 -0.658203,1.03711 0.216369,-0.3471 0.439684,-0.69098 0.658203,-1.03711 z m -2.439453,3.95703 c -0.160365,0.26668 -0.32526,0.53159 -0.484375,0.79883 0.159115,-0.2672 0.32401,-0.53219 0.484375,-0.79883 z m -4.376953,7.63281 c -0.12974,0.23751 -0.263791,0.473 -0.392578,0.71094 0.128756,-0.23784 0.262869,-0.47353 0.392578,-0.71094 z m -3.917969,7.5293 c -0.149422,0.3019 -0.303233,0.60173 -0.451172,0.90429 0.147966,-0.30256 0.301723,-0.60239 0.451172,-0.90429 z m -5.552734,12.17773 c -0.06711,0.16069 -0.138363,0.3196 -0.205078,0.48047 0.06675,-0.16092 0.137934,-0.31973 0.205078,-0.48047 z m -10.71875,33.07617 c -0.0385,0.16253 -0.08099,0.32364 -0.119141,0.48633 0.03816,-0.16272 0.08063,-0.32376 0.119141,-0.48633 z m -2.748047,13.40039 A 1.2034582,1.2034582 0 0 1 56.855469,216 h 0.953125 c 0.05017,-0.29608 0.106924,-0.58918 0.158203,-0.88477 z M 56.537109,296 a 1.2034582,1.2034582 0 0 1 1.089844,0.98242 l 0.277344,1.51953 a 1.2002958,1.2002958 0 0 0 0.03125,0.1211 C 57.781032,297.74886 57.617013,296.87708 57.472656,296 Z m 5.59961,21.5625 c 0.0379,0.14144 0.07705,0.28247 0.115234,0.42383 -0.03821,-0.14135 -0.07731,-0.2824 -0.115234,-0.42383 z m 1.322265,4.71875 c 0.03953,0.13547 0.07935,0.27085 0.119141,0.40625 -0.03983,-0.1354 -0.07957,-0.27078 -0.119141,-0.40625 z m 1.396485,4.60156 c 0.07258,0.23007 0.147364,0.45961 0.220703,0.68946 -0.07338,-0.22978 -0.148077,-0.45946 -0.220703,-0.68946 z m 1.503906,4.59375 c 0.10034,0.29548 0.205035,0.58965 0.306641,0.88477 -0.10169,-0.2951 -0.206218,-0.58931 -0.306641,-0.88477 z m 1.666016,4.72852 c 0.07163,0.19631 0.146552,0.39174 0.21875,0.58789 -0.07226,-0.19615 -0.147057,-0.39158 -0.21875,-0.58789 z m 1.708984,4.53125 c 0.128914,0.33087 0.263988,0.65983 0.394531,0.99023 -0.130659,-0.33043 -0.265502,-0.65934 -0.394531,-0.99023 z m 1.806641,4.49023 c 0.204547,0.49334 0.418733,0.98427 0.626953,1.47656 -0.208365,-0.49228 -0.422258,-0.98323 -0.626953,-1.47656 z m 1.939453,4.53906 c 0.249026,0.56548 0.509755,1.12732 0.763672,1.69141 -0.254002,-0.56393 -0.514552,-1.12608 -0.763672,-1.69141 z m 2.046875,4.51368 c 0.315307,0.67585 0.644408,1.34764 0.966797,2.02148 -0.322569,-0.67388 -0.6513,-1.34559 -0.966797,-2.02148 z m 2.164062,4.51172 c 0.29993,0.60812 0.61418,1.21189 0.919922,1.81836 -0.30579,-0.60634 -0.619931,-1.21038 -0.919922,-1.81836 z M 296.06445,26.669922 c -68.16361,0 -125.53515,22.220777 -172.11718,66.666016 C 87.845083,127.94078 65.801793,168.83031 57.808594,216 H 0 v 80 h 57.472656 c 4.400812,26.73847 13.522259,52.13425 27.371094,76.1875 20.29951,35.25704 47.86367,62.9298 82.69336,83.01562 34.82968,20.08585 77.2452,30.12696 127.24609,30.12696 60.41743,0 120.59648,-10.45954 160.59961,-44.55469 l 1.46094,-1.27148 a 2.1995416,2.1995416 0 0 0 0.75586,-1.65625 l 0.004,-3.57813 a 1.4676375,1.4676375 0 0 1 0.002,-0.30664 v -61.16016 l -0.0156,-4.91796 a 2.5075065,2.5075065 0 0 0 -4.27539,-1.77149 l -7.30468,7.25977 a 3.2969185,3.2969185 0 0 1 -0.14063,0.13086 c -38.95966,38.49947 -98.19582,52.85156 -147.24023,52.85156 -51.92401,0 -94.55279,-15.81301 -127.88672,-47.4375 -33.33393,-31.6245 -50.00196,-72.00812 -50.00196,-121.1543 0,-48.71882 16.88129,-89.21103 50.64258,-121.47656 33.97497,-32.47921 76.60375,-48.718751 127.88672,-48.718751 45.10119,0 99.03649,14.866571 140.48438,49.048831 a 3.4082602,3.4082602 0 0 1 0.2207,0.16601 l 0.36914,0.3086 7.79883,6.49414 a 2.8243024,2.8243024 0 0 0 4.63086,-2.16016 l 0.0176,-4.91797 a 1.2978971,1.2978971 0 0 1 0.008,-0.12695 V 76.427734 a 1.4676363,1.4676363 0 0 1 -0.002,-0.30664 l -0.004,-3.578125 a 1.8965547,1.8965547 0 0 0 -0.82813,-1.564453 l -1.59179,-1.087891 C 399.60287,35.629998 342.33652,26.669922 296.06445,26.669922 Z"
         style="font-style:normal;font-variant:normal;font-weight:normal;font-stretch:normal;font-size:656.422px;font-family:'Gill Sans';-inkscape-font-specification:'Gill Sans, Normal';font-variant-ligatures:normal;font-variant-caps:normal;font-variant-numeric:normal;font-variant-east-asian:normal;fill:#333333;stroke-width:16.4106"
         id="path173" />
    </g>
  </g>
  <g
     inkscape:groupmode="layer"
     id="layer3"
     inkscape:label="Shading"
     style="display:inline;opacity:0.6;mix-blend-mode:multiply">
    <g
       inkscape:label="O"
       style="font-style:normal;font-variant:normal;font-weight:normal;font-stretch:normal;font-size:377.536px;line-height:1.25;font-family:'Gill Sans';-inkscape-font-specification:'Gill Sans, Normal';font-variant-ligatures:normal;font-variant-caps:normal;font-variant-numeric:normal;font-variant-east-asian:normal;mix-blend-mode:normal;fill:#ff2a2a;fill-opacity:1;stroke:none;stroke-width:9.43839"
       id="g45"
       aria-label="O">
      <path
         id="path43"
         style="font-style:normal;font-variant:normal;font-weight:normal;font-stretch:normal;font-size:377.536px;font-family:'Gill Sans';-inkscape-font-specification:'Gill Sans, Normal';font-variant-ligatures:normal;font-variant-caps:normal;font-variant-numeric:normal;font-variant-east-asian:normal;opacity:1;fill:#800080;stroke-width:8.35717"
         d="M 184.10938,182.4043 C 168.04016,203.41335 160,228.32428 160,257.14258 c 0,35.75715 12.90476,65.53496 38.71289,89.33398 C 224.64391,370.15835 257.02624,382 295.86133,382 c 40.67852,0 74.35113,-11.84165 101.01953,-35.52344 11.06102,-9.82564 19.83179,-20.71238 26.32617,-32.65625 l -36.19726,-19.89453 c -4.41241,6.12431 -10.02701,11.79693 -16.85743,17.01563 -19.17174,14.74185 -43.1369,22.11328 -71.89453,22.11328 -28.63473,0 -52.47653,-7.22689 -71.52539,-21.67969 -19.04885,-14.4528 -28.57422,-32.56625 -28.57422,-54.3418 0,-21.22705 8.46658,-38.87768 25.38672,-52.95508 z"
         inkscape:connector-curvature="0" />
    </g>
    <g
       id="layer2"
       inkscape:label="C">
      <path
         inkscape:connector-curvature="0"
         d="m 91.535156,131.52148 c -1.028767,1.51929 -2.0347,3.04892 -3.019531,4.5879 0.986011,-1.53826 1.990837,-3.06871 3.019531,-4.5879 z M 56.537109,296 a 1.2034582,1.2034582 0 0 1 1.089844,0.98242 l 0.277344,1.51953 a 1.2002958,1.2002958 0 0 0 0.03125,0.1211 C 57.781032,297.74886 57.617013,296.87708 57.472656,296 Z m 5.59961,21.5625 c 0.0379,0.14144 0.07705,0.28247 0.115234,0.42383 -0.03821,-0.14135 -0.07731,-0.2824 -0.115234,-0.42383 z m 1.322265,4.71875 c 0.03953,0.13547 0.07935,0.27085 0.119141,0.40625 -0.03983,-0.1354 -0.07957,-0.27078 -0.119141,-0.40625 z m 1.396485,4.60156 c 0.07258,0.23007 0.147364,0.45961 0.220703,0.68946 -0.07338,-0.22978 -0.148077,-0.45946 -0.220703,-0.68946 z m 1.503906,4.59375 c 0.10034,0.29548 0.205035,0.58965 0.306641,0.88477 -0.10169,-0.2951 -0.206218,-0.58931 -0.306641,-0.88477 z m 1.666016,4.72852 c 0.07163,0.19631 0.146552,0.39174 0.21875,0.58789 -0.07226,-0.19615 -0.147057,-0.39158 -0.21875,-0.58789 z m 1.708984,4.53125 c 0.128914,0.33087 0.263988,0.65983 0.394531,0.99023 -0.130659,-0.33043 -0.265502,-0.65934 -0.394531,-0.99023 z m 1.806641,4.49023 c 0.204547,0.49334 0.418733,0.98427 0.626953,1.47656 -0.208365,-0.49228 -0.422258,-0.98323 -0.626953,-1.47656 z m 1.939453,4.53906 c 0.249026,0.56548 0.509755,1.12732 0.763672,1.69141 -0.254002,-0.56393 -0.514552,-1.12608 -0.763672,-1.69141 z m 2.046875,4.51368 c 0.315307,0.67585 0.644408,1.34764 0.966797,2.02148 -0.322569,-0.67388 -0.6513,-1.34559 -0.966797,-2.02148 z m 2.164062,4.51172 c 0.29993,0.60812 0.61418,1.21189 0.919922,1.81836 -0.30579,-0.60634 -0.619931,-1.21038 -0.919922,-1.81836 z m 2.779297,-209.02344 c -0.213337,0.39461 -0.437722,0.7839 -0.648437,1.17969 0.210683,-0.39557 0.435138,-0.78529 0.648437,-1.17969 z m -5.255859,10.39453 c -0.132003,0.28031 -0.271598,0.55702 -0.402344,0.83789 0.130754,-0.28074 0.270334,-0.55771 0.402344,-0.83789 z m -4.611328,10.52539 c -0.08371,0.20649 -0.172795,0.41041 -0.25586,0.61719 0.0831,-0.20674 0.172112,-0.41075 0.25586,-0.61719 z M 57.980469,215.05469 A 1.2034582,1.2034582 0 0 1 56.867188,216 h 0.941406 c 0.05369,-0.31682 0.116918,-0.62906 0.171875,-0.94531 z M 67.939647,216 H 0 c 0.00784058,34.04007 0.85477309,48.87054 0,80 H 67.939647 Z M 91.535156,131.52148 C 74.28546,156.99592 63.036054,185.15157 57.808594,216 c -4.157744,33.9929 -3.721269,44.34004 -0.335938,80 4.400812,26.73847 13.522259,52.13425 27.371094,76.1875 20.29951,35.25704 47.86367,62.9298 82.69336,83.01562 34.82968,20.08585 77.2452,30.12696 127.24609,30.12696 60.41743,0 120.59648,-10.45954 160.59961,-44.55469 l 1.46094,-1.27148 c 0.47933,-0.41701 0.75494,-1.02091 0.75586,-1.65625 l 0.004,-3.57813 c -0.01,-0.102 -0.009,-0.20478 0.002,-0.30664 v -61.16016 l -0.0156,-4.91796 c -0.006,-2.22716 -2.69595,-3.34174 -4.27539,-1.77149 l -7.30468,7.25977 c -0.0456,0.045 -0.0925,0.0886 -0.14063,0.13086 -38.95954,38.50054 -98.19513,52.85156 -147.24023,52.85156 -51.92401,0 -94.55279,-15.81301 -127.88672,-47.4375 -33.33393,-31.6245 -50.00196,-72.00812 -50.00196,-121.1543 0,-36.15039 9.30377,-67.76808 27.89258,-94.85937 z"
         style="opacity:1;fill:#800080;fill-rule:nonzero;stroke-width:3.85675;stroke-miterlimit:4;stroke-dasharray:none"
         id="path164" />
    </g>
  </g>
</svg>
